<?xml version="1.0" standalone="no"?>
<!DOCTYPE svg PUBLIC "-//W3C//DTD SVG 20010904//EN"
 "http://www.w3.org/TR/2001/REC-SVG-20010904/DTD/svg10.dtd">
<svg version="1.0" xmlns="http://www.w3.org/2000/svg"
 width="626.000000pt" height="626.000000pt" viewBox="0 0 626.000000 626.000000"
 preserveAspectRatio="xMidYMid meet">

<g transform="translate(0.000000,626.000000) scale(0.100000,-0.100000)"
fill="#000000" stroke="none">
<path d="M2158 5385 c-32 -169 -41 -260 -40 -445 0 -304 56 -572 163 -782 11
-22 19 -42 17 -44 -2 -2 -73 46 -158 106 -84 60 -158 106 -164 103 -6 -3 -8
-3 -4 2 11 11 -72 70 -99 70 -13 1 -23 -2 -23 -5 0 -7 51 -97 74 -132 10 -16
16 -28 13 -28 -7 0 -59 84 -101 164 -93 178 18 -154 124 -369 88 -180 193
-339 307 -466 l78 -87 90 -26 c50 -15 115 -35 145 -46 54 -18 54 -19 19 -19
l-36 -1 -13 -95 c-7 -52 -10 -105 -8 -118 7 -38 -26 -32 -155 27 -156 71 -389
226 -542 361 l-80 70 35 -49 c162 -227 432 -472 669 -607 61 -35 83 -42 120
-41 25 2 178 9 340 18 161 8 296 12 299 9 3 -3 -3 -12 -14 -20 -10 -8 -14 -15
-8 -15 8 0 11 -32 10 -105 l-1 -106 25 5 c21 4 19 3 -6 -9 -17 -7 -71 -22
-120 -31 -109 -22 -409 -25 -529 -6 -206 34 -433 95 -594 162 -39 16 -71 27
-71 24 0 -6 152 -103 230 -146 168 -93 402 -180 587 -217 l101 -21 308 120
c169 67 315 119 323 118 9 -2 20 -13 26 -26 5 -12 15 -22 21 -22 5 0 23 -14
40 -32 16 -17 22 -27 14 -23 -12 6 -13 5 -2 -6 15 -16 16 -79 1 -79 -6 0 -9
-6 -6 -13 11 -29 -238 -122 -433 -161 -129 -26 -317 -39 -464 -33 -76 3 -137
4 -135 2 7 -6 200 -52 274 -65 39 -7 143 -15 232 -19 l162 -6 -58 -90 c-127
-199 -384 -640 -407 -700 -7 -16 -3 -17 34 -11 40 6 48 2 43 -27 0 -4 6 -7 14
-7 8 0 15 -6 15 -14 0 -8 12 -24 28 -36 15 -12 21 -19 15 -15 -8 4 -13 -1 -13
-14 0 -32 -141 -164 -258 -242 -118 -79 -248 -144 -378 -189 l-89 -31 65 6
c190 18 448 106 612 210 54 34 59 40 88 118 58 154 113 287 117 287 3 0 2 -14
-2 -31 -6 -29 -6 -30 13 -18 12 7 18 17 16 21 -3 4 9 8 27 8 18 0 30 -3 26 -6
-3 -4 0 -13 8 -21 8 -8 15 -24 15 -36 1 -22 1 -22 16 -2 15 19 15 19 9 -10
-41 -186 -160 -387 -337 -567 -56 -57 -33 -47 72 30 100 73 225 202 287 294
l50 75 -5 150 -5 150 65 12 c36 6 68 11 72 11 5 0 6 -62 4 -137 -6 -149 -34
-283 -82 -389 -14 -30 -23 -54 -21 -54 2 0 24 34 50 74 88 141 147 313 161
467 l6 76 57 18 c162 50 348 162 455 275 81 86 118 141 167 244 71 152 92 260
129 671 16 182 50 230 161 230 32 0 59 3 59 6 0 11 -46 47 -98 78 -48 28 -61
31 -136 31 -50 0 -114 -8 -160 -20 -83 -21 -222 -82 -289 -127 -74 -50 -74
-47 1 21 l72 68 0 131 c0 156 24 331 74 545 35 150 43 197 26 157 -5 -11 -9
-14 -9 -7 -1 6 -11 12 -23 12 -13 0 -36 7 -52 15 -34 18 -53 8 -59 -33 -2 -15
-5 16 -6 70 -3 207 74 439 224 671 l66 102 -94 -96 c-108 -112 -189 -227 -251
-360 -44 -93 -86 -223 -86 -266 0 -51 -18 -15 -73 140 -31 89 -54 147 -51 128
4 -20 2 -31 -3 -28 -6 4 -8 -4 -6 -17 3 -13 -1 -27 -7 -31 -10 -6 -11 5 -7 46
3 30 8 63 12 74 6 19 6 19 -8 2 -39 -48 -88 -297 -90 -462 -2 -185 6 -224 60
-292 64 -80 71 -91 46 -70 -21 18 -21 18 -28 -3 -8 -26 -75 -100 -90 -100 -15
0 -96 147 -133 240 -29 72 -65 188 -76 240 -3 14 -3 -22 0 -80 6 -153 44 -315
106 -452 28 -62 36 -71 107 -116 252 -163 312 -205 284 -199 -26 6 -48 -16
-39 -38 3 -9 2 -14 -3 -10 -5 3 -17 2 -26 -1 -13 -5 -14 -8 -3 -15 10 -7 10
-11 -4 -25 -12 -13 -19 -14 -30 -5 -7 6 -34 25 -60 42 -70 45 -198 177 -284
292 -148 199 -301 486 -428 805 -41 102 -73 169 -79 165 -6 -4 -8 0 -4 11 4
10 3 15 -3 11 -6 -3 -10 -13 -10 -21 0 -8 -5 -12 -10 -9 -6 4 -7 11 -4 17 9
15 -16 28 -35 18 -9 -5 -46 -19 -83 -31 -55 -18 -67 -26 -71 -48 -3 -14 -1
-30 4 -36 5 -5 9 -13 9 -18 0 -31 -119 150 -184 280 -136 270 -206 591 -219
993 l-2 75 -17 -90z m661 -1245 c0 -9 -4 -8 -9 5 -5 11 -9 27 -9 35 0 9 4 8 9
-5 5 -11 9 -27 9 -35z m-143 -110 c43 -45 98 -93 121 -108 41 -26 62 -54 26
-33 -56 31 -253 221 -230 221 2 0 40 -36 83 -80z m205 -177 c13 -17 13 -17 -6
-3 -11 8 -22 16 -24 17 -2 2 0 3 6 3 6 0 17 -8 24 -17z m1096 -15 c-3 -8 -6
-5 -6 6 -1 11 2 17 5 13 3 -3 4 -12 1 -19z m-91 -158 c4 -19 4 -33 2 -30 -10
9 -38 131 -37 158 1 25 19 -43 35 -128z m-14 -1230 l77 -27 -27 -25 c-165
-149 -439 -298 -667 -362 -33 -9 -69 -20 -80 -23 -22 -6 38 51 339 325 l199
181 41 -21 c22 -12 76 -33 118 -48z"/>
<path d="M1837 4428 c7 -8 11 -17 8 -19 -2 -3 5 -5 15 -6 26 -2 25 1 -7 23
-20 13 -25 13 -16 2z"/>
<path d="M2752 4315 c12 -24 23 -43 26 -41 4 5 -36 86 -43 86 -3 0 5 -20 17
-45z"/>
<path d="M4002 3950 c0 -14 2 -19 5 -12 2 6 2 18 0 25 -3 6 -5 1 -5 -13z"/>
<path d="M2609 1313 c-13 -16 -12 -17 4 -4 9 7 17 15 17 17 0 8 -8 3 -21 -13z"/>
<path d="M2840 1294 c0 -8 5 -12 10 -9 6 3 10 10 10 16 0 5 -4 9 -10 9 -5 0
-10 -7 -10 -16z"/>
</g>
</svg>
